<?xml version="1.0" encoding="utf-8"?>
<!-- Generator: Adobe Illustrator 24.0.0, SVG Export Plug-In . SVG Version: 6.00 Build 0)  -->
<!DOCTYPE svg PUBLIC "-//W3C//DTD SVG 1.1//EN" "http://www.w3.org/Graphics/SVG/1.1/DTD/svg11.dtd" [
	<!ENTITY ns_extend "http://ns.adobe.com/Extensibility/1.0/">
	<!ENTITY ns_ai "http://ns.adobe.com/AdobeIllustrator/10.0/">
	<!ENTITY ns_graphs "http://ns.adobe.com/Graphs/1.0/">
	<!ENTITY ns_vars "http://ns.adobe.com/Variables/1.0/">
	<!ENTITY ns_imrep "http://ns.adobe.com/ImageReplacement/1.0/">
	<!ENTITY ns_sfw "http://ns.adobe.com/SaveForWeb/1.0/">
	<!ENTITY ns_custom "http://ns.adobe.com/GenericCustomNamespace/1.0/">
	<!ENTITY ns_adobe_xpath "http://ns.adobe.com/XPath/1.0/">
]>
<svg version="1.1" xmlns:x="&ns_extend;" xmlns:i="&ns_ai;" xmlns:graph="&ns_graphs;"
	 xmlns="http://www.w3.org/2000/svg" xmlns:xlink="http://www.w3.org/1999/xlink" x="0px" y="0px" viewBox="0 0 216 216"
	 style="enable-background:new 0 0 216 216;" xml:space="preserve">
<style type="text/css">
	.st0{display:none;}
	.st1{display:inline;fill:url(#SVGID_1_);}
	.st2{display:inline;fill:url(#SVGID_2_);}
	.st3{display:inline;fill:#FFFFFF;}
	.st4{display:inline;fill:url(#SVGID_3_);}
	.st5{display:inline;fill:url(#SVGID_4_);}
	.st6{fill:url(#SVGID_5_);}
	.st7{fill:url(#SVGID_6_);}
	.st8{fill:url(#SVGID_7_);}
	.st9{fill:url(#SVGID_8_);}
	.st10{display:none;fill:#87C6EC;}
	.st11{display:none;fill:#5EBA24;}
	.st12{display:none;fill:#335E90;}
	.st13{display:none;fill:#C6E7C9;}
	.st14{display:inline;fill:#87C6EC;}
	.st15{display:inline;fill:url(#SVGID_9_);}
	.st16{display:inline;fill:#335E90;}
	.st17{display:inline;fill:#C6E7C9;}
	.st18{fill:none;stroke:url(#SVGID_10_);stroke-width:10;stroke-miterlimit:10;}
	.st19{fill:#FFFFFF;}
	.st20{fill:url(#SVGID_11_);}
	.st21{fill:url(#SVGID_12_);}
	.st22{fill:url(#SVGID_13_);}
	.st23{fill:url(#SVGID_14_);}
	.st24{fill:url(#SVGID_15_);}
	.st25{fill:#87C6EC;}
	.st26{fill:#5EBA24;}
	.st27{fill:#335E90;}
	.st28{fill:#C6E7C9;}
	.st29{display:inline;fill:url(#SVGID_16_);}
	.st30{display:inline;fill:#FFFFFF;stroke:url(#SVGID_17_);stroke-width:10;stroke-miterlimit:10;}
	.st31{fill:url(#SVGID_18_);}
	.st32{fill:url(#SVGID_19_);}
	.st33{display:inline;fill:url(#SVGID_20_);}
	.st34{display:inline;fill:url(#SVGID_21_);}
	.st35{display:inline;fill:url(#SVGID_22_);}
	.st36{display:inline;}
	.st37{fill:url(#SVGID_23_);}
	.st38{fill:url(#SVGID_24_);}
	.st39{fill:#FB2B3A;}
	.st40{fill:#FCDB35;}
	.st41{fill:url(#SVGID_25_);}
</style>
<metadata>
	<sfw  xmlns="&ns_sfw;">
		<slices></slices>
		<sliceSourceBounds  bottomLeftOrigin="true" height="504" width="907.2" x="-42.1" y="-755.5"></sliceSourceBounds>
	</sfw>
</metadata>
<g id="Layer_1" class="st0">
	
		<linearGradient id="SVGID_1_" gradientUnits="userSpaceOnUse" x1="-1.6076" y1="104.7098" x2="68.9884" y2="110.8861" gradientTransform="matrix(-1 0 0 -1 216 216)">
		<stop  offset="0" style="stop-color:#3100C2"/>
		<stop  offset="1" style="stop-color:#3165FF"/>
	</linearGradient>
	<path class="st1" d="M144,144c0-72,72-72,72-72v57c0,8.3-6.7,15-15,15H144z"/>
	
		<linearGradient id="SVGID_2_" gradientUnits="userSpaceOnUse" x1="40.8231" y1="18" x2="96.4818" y2="114.4037" gradientTransform="matrix(-1 0 0 -1 216 216)">
		<stop  offset="0" style="stop-color:#00A555"/>
		<stop  offset="1" style="stop-color:#00F855"/>
	</linearGradient>
	<path class="st2" d="M72,216v-9c0-74.6,60.4-135,135-135h9c0,0-72,0-72,72v72H72z"/>
	<path class="st3" d="M216,72"/>
	<path class="st3" d="M216,72"/>
	
		<linearGradient id="SVGID_3_" gradientUnits="userSpaceOnUse" x1="114.1478" y1="41.6009" x2="185.9884" y2="47.8861" gradientTransform="matrix(1 0 0 1 -117 63)">
		<stop  offset="0" style="stop-color:#3100C2"/>
		<stop  offset="1" style="stop-color:#3165FF"/>
	</linearGradient>
	<path class="st4" d="M72,72c0,72-72,72-72,72V72H72z"/>
	
		<linearGradient id="SVGID_4_" gradientUnits="userSpaceOnUse" x1="157.8231" y1="-45" x2="213.4818" y2="51.4037" gradientTransform="matrix(1 0 0 1 -117 63)">
		<stop  offset="0" style="stop-color:#00A555"/>
		<stop  offset="1" style="stop-color:#00F855"/>
	</linearGradient>
	<path class="st5" d="M144,0v9c0,74.6-60.4,135-135,135H0c0,0,72,0,72-72V0H144z"/>
	<path class="st3" d="M0,144"/>
	<path class="st3" d="M0,144"/>
</g>
<g id="Layer_5">
	<linearGradient id="SVGID_5_" gradientUnits="userSpaceOnUse" x1="139.09" y1="0" x2="139.09" y2="144.5449">
		<stop  offset="0" style="stop-color:#3100C2"/>
		<stop  offset="0.3998" style="stop-color:#313FDD"/>
		<stop  offset="0.8052" style="stop-color:#3179F5"/>
		<stop  offset="1" style="stop-color:#3190FF"/>
	</linearGradient>
	<path class="st6" d="M72,15L72,15c0,71.2,57.8,129,129,129h0c1.8,0,3.6-0.3,5.2-0.9c-19.5-3-61.5-15.9-62.2-71.1V15
		c0-8.3-6.7-15-15-15L87,0C78.7,0,72,6.7,72,15z"/>
	<linearGradient id="SVGID_6_" gradientUnits="userSpaceOnUse" x1="144" y1="107.54" x2="216" y2="107.54">
		<stop  offset="0" style="stop-color:#3100A4"/>
		<stop  offset="1" style="stop-color:#3165FF"/>
	</linearGradient>
	<path class="st7" d="M144,72c0.7,55.2,42.6,68.1,62.2,71.1c5.7-2.1,9.8-7.6,9.8-14.1V87c0-8.3-6.7-15-15-15H144z"/>
	
		<linearGradient id="SVGID_7_" gradientUnits="userSpaceOnUse" x1="211.09" y1="-72" x2="211.09" y2="72.5449" gradientTransform="matrix(-1 0 0 -1 288 144)">
		<stop  offset="0" style="stop-color:#00855F"/>
		<stop  offset="1" style="stop-color:#00F849"/>
	</linearGradient>
	<path class="st8" d="M144,201L144,201c0-71.2-57.8-129-129-129h0c-1.8,0-3.6,0.3-5.2,0.9c19.5,3,61.5,15.9,62.2,71.1v57
		c0,8.3,6.7,15,15,15h42C137.3,216,144,209.3,144,201z"/>
	
		<linearGradient id="SVGID_8_" gradientUnits="userSpaceOnUse" x1="216" y1="35.54" x2="288" y2="35.54" gradientTransform="matrix(-1 0 0 -1 288 144)">
		<stop  offset="0" style="stop-color:#00763C"/>
		<stop  offset="1" style="stop-color:#00E455"/>
	</linearGradient>
	<path class="st9" d="M72,144C71.3,88.8,29.4,75.9,9.8,72.9C4.1,75,0,80.5,0,87l0,42c0,8.3,6.7,15,15,15H72z"/>
</g>
<g id="Layer_6" class="st0">
</g>
<g id="Layer_7">
	<path class="st10" d="M509-87.7V5h-41.7v-92.7c0-28.1-22.9-51-51-51h-92.7v-41.7h92.7c25.6,0,48.8,10.4,65.6,27.2
		C498.7-136.5,509-113.3,509-87.7z"/>
	<path class="st11" d="M230.9-89.7h92.7V-48h-92.7c-28.1,0-51,22.9-51,51v92.7h-41.7V3c0-25.6,10.4-48.8,27.2-65.6
		C182.1-79.3,205.3-89.7,230.9-89.7z"/>
	<path class="st12" d="M228.9,188.5V95.8h41.7v92.7c0,28.1,22.9,51,51,51h92.7v41.7h-92.7c-25.6,0-48.8-10.4-65.6-27.2
		C239.2,237.3,228.9,214.1,228.9,188.5z"/>
	<path class="st13" d="M507,190.5h-92.7v-41.7H507c28.1,0,51-22.9,51-51V5h41.7v92.7c0,25.6-10.4,48.8-27.2,65.6
		C555.8,180.1,532.6,190.5,507,190.5z"/>
	<g class="st0">
		<path class="st14" d="M640.7-51.4V27h-37v-78.4h-82.2v-35.3h82.2C624.1-86.7,640.7-70.8,640.7-51.4z"/>
		<linearGradient id="SVGID_9_" gradientUnits="userSpaceOnUse" x1="402.1707" y1="46.9236" x2="521.4205" y2="46.9236">
			<stop  offset="0" style="stop-color:#6AB891"/>
			<stop  offset="1" style="stop-color:#85CBA9"/>
		</linearGradient>
		<path class="st15" d="M439.2-9.9h82.2v35.3h-82.2v78.4h-37V25.4C402.2,5.9,418.8-9.9,439.2-9.9z"/>
		<path class="st16" d="M482.6,182.2v-78.4h37v78.4h82.2v35.3h-82.2C499.3,217.5,482.6,201.7,482.6,182.2z"/>
		<path class="st17" d="M684.1,140.8h-82.2v-35.3h82.2V27h37v78.4C721.1,124.9,704.5,140.8,684.1,140.8z"/>
	</g>
	<linearGradient id="SVGID_10_" gradientUnits="userSpaceOnUse" x1="148.9951" y1="108.3785" x2="66.9792" y2="108.3785">
		<stop  offset="0" style="stop-color:#1B5500"/>
		<stop  offset="0.25" style="stop-color:#00AA52"/>
		<stop  offset="0.2738" style="stop-color:#00AE5D"/>
		<stop  offset="0.5" style="stop-color:#00D4BF"/>
		<stop  offset="0.6306" style="stop-color:#009CBF"/>
		<stop  offset="0.75" style="stop-color:#006CBF"/>
		<stop  offset="0.9002" style="stop-color:#004C96"/>
		<stop  offset="1" style="stop-color:#003A7F"/>
	</linearGradient>
	<circle class="st18" cx="108" cy="108.4" r="36"/>
	<g>
		<path class="st19" d="M104.2,72.6c0.1,0,0.1,0,0.2,0C104.3,72.6,104.2,72.6,104.2,72.6z"/>
		<path class="st19" d="M106,72.4c0,0,0.1,0,0.1,0C106.1,72.4,106.1,72.4,106,72.4z"/>
		<path class="st19" d="M105.1,72.5c0.1,0,0.1,0,0.2,0C105.2,72.5,105.1,72.5,105.1,72.5z"/>
		<path class="st19" d="M103.3,72.7c0.1,0,0.1,0,0.2,0C103.4,72.7,103.4,72.7,103.3,72.7z"/>
		<path class="st19" d="M102.5,72.8C102.5,72.8,102.5,72.8,102.5,72.8C102.5,72.8,102.5,72.8,102.5,72.8z"/>
		<path class="st19" d="M143.8,104.5c0,0.1,0,0.2,0,0.3C143.8,104.7,143.8,104.6,143.8,104.5z"/>
		<path class="st19" d="M143.9,105.4c0,0.1,0,0.2,0,0.3C143.9,105.6,143.9,105.5,143.9,105.4z"/>
		<path class="st19" d="M143.6,102.8c0,0.1,0,0.1,0,0.2C143.6,102.9,143.6,102.9,143.6,102.8z"/>
		<path class="st19" d="M144,107.4C144,107.4,144,107.4,144,107.4C144,107.4,144,107.4,144,107.4z"/>
		<path class="st19" d="M72,109.4C72,109.3,72,109.3,72,109.4C72,109.3,72,109.3,72,109.4z"/>
		<path class="st19" d="M143.7,103.7c0,0.1,0,0.2,0,0.2C143.7,103.8,143.7,103.8,143.7,103.7z"/>
		<path class="st19" d="M143.9,106.3c0,0.1,0,0.2,0,0.3C143.9,106.5,143.9,106.4,143.9,106.3z"/>
		<path class="st19" d="M112.7,144.1c-0.1,0-0.1,0-0.2,0C112.5,144.1,112.6,144.1,112.7,144.1z"/>
		<path class="st19" d="M111.8,144.2c-0.1,0-0.1,0-0.2,0C111.7,144.2,111.7,144.2,111.8,144.2z"/>
		<path class="st19" d="M110.9,144.3c-0.1,0-0.1,0-0.2,0C110.8,144.3,110.8,144.3,110.9,144.3z"/>
		<path class="st19" d="M113.5,144C113.5,144,113.4,144,113.5,144C113.4,144,113.5,144,113.5,144z"/>
		<path class="st19" d="M103.5,107c0.5-0.5,0.9-1.1,1.1-1.7c0.2-0.3,0.3-0.7,0.4-1c0.2-0.6,0.2-1.2,0.2-1.8c0-2.3-1.4-4-4.1-4h-6.8
			l-1.8,10.4h6.8C100.9,108.8,102.3,108.2,103.5,107z"/>
		<path class="st19" d="M72,110.5c0-0.1,0-0.2,0-0.3C72,110.3,72,110.4,72,110.5z"/>
		<path class="st19" d="M144,108.3c0,9.1-4.4,17.8-11.9,23.1c-4.7,3.4-10.3,5.3-16.2,5.3c-2.4,0-4.8-0.2-7.1-0.8
			c-3.9-0.9-7.6-2.7-10.7-5.1c3.3,1.1,6.8,1.6,10.3,1.6c6.5-0.1,12.7-2.1,17.9-5.9c0.9-0.6,1.7-1.3,2.5-2c0,0,0,0,0,0
			c-3,1.2-6,1.7-8.9,1.7c-4.6,0-8.3-1.4-11.1-4.1c-1.8-1.8-3-3.9-3.6-6.3c2.1-0.7,4-1.9,5.7-3.7c0.6-0.6,1.1-1.2,1.6-1.9
			c0,5.2,3.4,8.8,9.1,8.8c3,0,6-0.8,9.1-2.4l-1.3,7.3l0,0c4.5-4.2,7.8-9.7,9.2-15.7c0.6-2.6,0.9-5.2,0.9-7.9
			c-0.1-5.9-1.8-11.5-4.9-16.4c-6.6-7.2-16-11.6-26.5-11.6c0,0-0.1,0-0.1,0c9.1,0,17.8,4.4,23.1,11.9c1.7,2.4,3,5,3.9,7.7
			c0,0,0,0,0,0l-1.1,6.2l0,0.1l-0.2,1.2c-0.4-0.2-0.7-0.4-1.1-0.6c0,0,0,0,0,0c-0.6-0.3-1.2-0.6-1.8-0.8c-0.1,0-0.1,0-0.2-0.1
			c0,0-0.1,0-0.1,0c0,0-0.1,0-0.1,0c0,0,0,0,0,0c0,0,0,0,0,0c0,0,0,0-0.1,0c-1.5-0.5-3.2-0.8-4.9-0.8c-3.5,0-6.6,1.3-9.2,3.9
			c-0.4,0.4-0.7,0.7-1,1.1c0-0.3,0-0.6,0-0.8c0-2.7-0.8-4.9-2.2-6.7c3.6-2.8,8.2-4.5,12.8-4.6h0c0,0,0.1,0,0.1,0c0,0,0,0,0,0
			c-4.4-6.1-10.8-10.4-18.1-12.1c-2.6-0.6-5.2-0.9-7.9-0.9c-5.9,0.1-11.5,1.8-16.4,4.9c-7.2,6.6-11.6,16-11.6,26.5c0,0,0,0.1,0,0.1
			c0-9.1,4.4-17.8,11.9-23.1c4.7-3.4,10.3-5.3,16.2-5.3c2.4,0,4.8,0.2,7.1,0.8c3.9,0.9,7.6,2.7,10.7,5.1c-3.3-1.1-6.8-1.6-10.3-1.6
			c-6.5,0.1-12.7,2.1-17.9,5.9c-6.1,4.4-10.5,10.9-12.2,18.2c-0.6,2.6-0.9,5.2-0.9,7.9c0.1,5.9,1.8,11.5,4.9,16.4
			c6.6,7.2,16,11.6,26.5,11.6c0,0,0.1,0,0.1,0c-9.1,0-17.8-4.4-23.1-11.9c-1.3-1.8-2.2-3.7-3-5.8l2.4-13.8L88,92.3h15.2
			c3.4,0,6.1,1.3,7.7,3.4c1.2,1.5,1.8,3.5,1.8,5.7c0,3.8-1.3,7-4,9.7c-1.5,1.5-3.1,2.5-4.9,3.2c-1.4,0.5-3,0.8-4.6,0.8h-7.8l-2,11
			c0.2,0.2,0.3,0.5,0.5,0.7c4.4,6.1,10.9,10.5,18.2,12.2c2.6,0.6,5.2,0.9,7.9,0.9c5.9-0.1,11.5-1.8,16.4-4.9
			C139.5,128.3,144,118.9,144,108.3C144,108.3,144,108.3,144,108.3z"/>
		<path class="st19" d="M72.2,112.2c0-0.1,0-0.2,0-0.3C72.2,112,72.2,112.1,72.2,112.2z"/>
		<path class="st19" d="M72.1,111.4c0-0.1,0-0.2,0-0.3C72.1,111.2,72.1,111.3,72.1,111.4z"/>
		<path class="st19" d="M72.3,113.1c0-0.1,0-0.2,0-0.2C72.3,112.9,72.3,113,72.3,113.1z"/>
		<path class="st19" d="M109.9,144.3c0,0-0.1,0-0.1,0C109.9,144.3,109.9,144.3,109.9,144.3z"/>
		<path class="st19" d="M72.4,113.9c0-0.1,0-0.1,0-0.2C72.4,113.8,72.4,113.9,72.4,113.9z"/>
	</g>
	<linearGradient id="SVGID_11_" gradientUnits="userSpaceOnUse" x1="118.4441" y1="99.2531" x2="94.4089" y2="140.8833">
		<stop  offset="0" style="stop-color:#3100C2"/>
		<stop  offset="0.3998" style="stop-color:#313FDD"/>
		<stop  offset="0.8052" style="stop-color:#3179F5"/>
		<stop  offset="1" style="stop-color:#3190FF"/>
	</linearGradient>
	<path class="st20" d="M116,139.8c-2.7,0-5.3-0.3-7.9-0.9c-7.3-1.8-13.8-6.1-18.2-12.2c-0.2-0.2-0.3-0.4-0.5-0.7l2-11h7.8
		c1.6,0,3.2-0.3,4.6-0.8c1.8-0.7,3.5-1.7,4.9-3.2c2.6-2.7,4-5.9,4-9.7c0-2.2-0.6-4.2-1.8-5.7c-1.6-2.1-4.3-3.4-7.7-3.4H88L84.3,113
		l-2.4,13.8c0.8,2,1.7,4,3,5.8c5.4,7.5,14,11.9,23.2,11.9c0.1,0,0.2,0,0.4,0c0.1,0,0.2,0,0.4,0c8.8-0.2,17.1-3.6,23.5-9.5
		C127.5,138,121.8,139.7,116,139.8z M94.3,98.4h6.8c2.7,0,4.1,1.7,4.1,4c0,0.6-0.1,1.2-0.2,1.8c-0.1,0.4-0.2,0.7-0.4,1
		c-0.3,0.6-0.7,1.2-1.1,1.7c-1.2,1.2-2.5,1.8-4.2,1.8h-6.8L94.3,98.4z"/>
	<linearGradient id="SVGID_12_" gradientUnits="userSpaceOnUse" x1="108.2105" y1="111.3522" x2="128.232" y2="125.6823">
		<stop  offset="0" style="stop-color:#00855F"/>
		<stop  offset="1" style="stop-color:#00F849"/>
	</linearGradient>
	<path class="st21" d="M121.4,119.1c-5.7,0-9.1-3.6-9.1-8.8c-0.5,0.6-1,1.3-1.6,1.9c-1.7,1.7-3.6,2.9-5.7,3.7
		c0.6,2.4,1.8,4.5,3.6,6.3c2.8,2.7,6.5,4.1,11.1,4.1c2.9,0,5.9-0.6,8.9-1.7c0.2-0.1,0.3-0.1,0.5-0.2l0.1-0.3l1.3-7.3
		C127.5,118.3,124.5,119.1,121.4,119.1z"/>
	<g>
		<linearGradient id="SVGID_13_" gradientUnits="userSpaceOnUse" x1="121.0696" y1="106.7555" x2="100.49" y2="71.1105">
			<stop  offset="0" style="stop-color:#00855F"/>
			<stop  offset="1" style="stop-color:#00F849"/>
		</linearGradient>
		<path class="st22" d="M135,91.9l-1.1,6.2l0,0.1l-0.2,1.2c-0.4-0.2-0.7-0.4-1.1-0.6c0,0,0,0,0,0c-0.6-0.3-1.2-0.6-1.8-0.8
			c-0.1,0-0.1,0-0.2-0.1c0,0-0.1,0-0.1,0c0,0-0.1,0-0.1,0c0,0,0,0,0,0c0,0,0,0,0,0c0,0,0,0-0.1,0c-1.5-0.5-3.2-0.8-4.9-0.8
			c-3.5,0-6.6,1.3-9.2,3.9c-0.4,0.4-0.7,0.7-1,1.1c0-0.3,0-0.6,0-0.8c0-2.7-0.8-4.9-2.2-6.7c3.6-2.8,8.2-4.5,12.8-4.6h0
			c0,0,0.1,0,0.1,0c0,0,0,0,0,0c-4.4-6.1-10.8-10.4-18.1-12.1c-2.6-0.6-5.2-0.9-7.9-0.9c-5.9,0.1-11.5,1.8-16.4,4.9
			c6.4-5.9,14.7-9.3,23.5-9.5c0.1,0,0.3,0,0.4,0c0.1,0,0.2,0,0.4,0c9.2,0,17.8,4.4,23.2,11.9C132.7,86.6,134,89.2,135,91.9
			C134.9,91.9,135,91.9,135,91.9z"/>
		<linearGradient id="SVGID_14_" gradientUnits="userSpaceOnUse" x1="98.0637" y1="110.378" x2="143.9951" y2="110.378">
			<stop  offset="0" style="stop-color:#AE1717"/>
			<stop  offset="0.5" style="stop-color:#DA3025"/>
			<stop  offset="0.6764" style="stop-color:#E8361C"/>
			<stop  offset="1" style="stop-color:#FF3F0F"/>
		</linearGradient>
		<path class="st23" d="M144,107.8c0,0.1,0,0.2,0,0.4c0,9.2-4.4,17.9-11.9,23.2c-4.7,3.4-10.3,5.3-16.2,5.3c-2.4,0-4.8-0.2-7.1-0.8
			c-3.9-0.9-7.6-2.7-10.7-5.1c3.3,1.1,6.8,1.6,10.3,1.6c6.5-0.1,12.7-2.1,17.9-5.9c6.1-4.4,10.5-10.9,12.2-18.2
			c0.6-2.6,0.9-5.2,0.9-7.9c-0.1-5.9-1.8-11.5-4.9-16.4c5.9,6.4,9.3,14.7,9.5,23.5C144,107.6,144,107.7,144,107.8z"/>
		<linearGradient id="SVGID_15_" gradientUnits="userSpaceOnUse" x1="117.9107" y1="106.379" x2="71.9793" y2="106.379">
			<stop  offset="0" style="stop-color:#AE1717"/>
			<stop  offset="0.5" style="stop-color:#DA3025"/>
			<stop  offset="0.6764" style="stop-color:#E8361C"/>
			<stop  offset="1" style="stop-color:#FF3F0F"/>
		</linearGradient>
		<path class="st24" d="M117.9,85.9c-3.3-1.1-6.8-1.6-10.3-1.6c-6.5,0.1-12.7,2.1-17.9,5.9c-6.1,4.4-10.5,10.9-12.2,18.2
			c-0.6,2.6-0.9,5.2-0.9,7.9c0.1,5.9,1.8,11.5,4.9,16.4c-5.9-6.4-9.3-14.7-9.5-23.5c0-0.1,0-0.3,0-0.4c0-0.1,0-0.2,0-0.4
			c0-9.2,4.4-17.8,11.9-23.2c4.7-3.4,10.3-5.3,16.2-5.3c2.4,0,4.8,0.2,7.1,0.8C111.1,81.7,114.8,83.5,117.9,85.9z"/>
	</g>
</g>
<g id="Layer_8" class="st0">
	<path class="st25" d="M184.8-45.4v92.7h-41.7v-92.7c0-28.1-22.9-51-51-51H-0.6v-41.7h92.7c25.6,0,48.8,10.4,65.6,27.2
		C174.4-94.2,184.8-71,184.8-45.4z"/>
	<path class="st26" d="M-93.4-47.4h92.7v41.7h-92.7c-28.1,0-51,22.9-51,51v92.7h-41.7V45.3c0-25.6,10.4-48.8,27.2-65.6
		C-142.1-37-118.9-47.4-93.4-47.4z"/>
	<path class="st27" d="M-95.4,230.8v-92.7h41.7v92.7c0,28.1,22.9,51,51,51h92.7v41.7H-2.6c-25.6,0-48.8-10.4-65.6-27.2
		C-85,279.6-95.4,256.4-95.4,230.8z"/>
	<path class="st28" d="M182.8,232.8H90.1v-41.7h92.7c28.1,0,51-22.9,51-51V47.3h41.7v92.7c0,25.6-10.4,48.8-27.2,65.6
		C231.6,222.4,208.4,232.8,182.8,232.8z"/>
	<g>
		<path class="st14" d="M316.5-9.1v78.4h-37V-9.1h-82.2v-35.3h82.2C299.8-44.4,316.5-28.5,316.5-9.1z"/>
		<linearGradient id="SVGID_16_" gradientUnits="userSpaceOnUse" x1="77.9547" y1="89.2394" x2="197.2045" y2="89.2394">
			<stop  offset="0" style="stop-color:#6AB891"/>
			<stop  offset="1" style="stop-color:#85CBA9"/>
		</linearGradient>
		<path class="st29" d="M115,32.4h82.2v35.3H115v78.4H78V67.7C78,48.2,94.5,32.4,115,32.4z"/>
		<path class="st16" d="M158.4,224.5v-78.4h37v78.4h82.2v35.3h-82.2C175,259.8,158.4,244,158.4,224.5z"/>
		<path class="st17" d="M359.9,183.1h-82.2v-35.3h82.2V69.4h37v78.4C396.9,167.2,380.3,183.1,359.9,183.1z"/>
	</g>
	<linearGradient id="SVGID_17_" gradientUnits="userSpaceOnUse" x1="149.0159" y1="108.008" x2="67" y2="108.008">
		<stop  offset="0" style="stop-color:#1B5500"/>
		<stop  offset="0.25" style="stop-color:#00AA52"/>
		<stop  offset="0.2738" style="stop-color:#00AE5D"/>
		<stop  offset="0.5" style="stop-color:#00D4BF"/>
		<stop  offset="0.6306" style="stop-color:#009CBF"/>
		<stop  offset="0.75" style="stop-color:#006CBF"/>
		<stop  offset="0.9002" style="stop-color:#004C96"/>
		<stop  offset="1" style="stop-color:#003A7F"/>
	</linearGradient>
	<circle class="st30" cx="108" cy="108" r="36"/>
	<g>
		<path class="st3" d="M104.2,72.2c0.1,0,0.1,0,0.2,0C104.3,72.2,104.3,72.2,104.2,72.2z"/>
		<path class="st3" d="M106,72.1c0,0,0.1,0,0.1,0C106.1,72,106.1,72.1,106,72.1z"/>
		<path class="st3" d="M105.1,72.1c0.1,0,0.1,0,0.2,0C105.2,72.1,105.2,72.1,105.1,72.1z"/>
		<path class="st3" d="M103.3,72.3c0.1,0,0.1,0,0.2,0C103.5,72.3,103.4,72.3,103.3,72.3z"/>
		<path class="st3" d="M102.5,72.4C102.5,72.4,102.5,72.4,102.5,72.4C102.5,72.4,102.5,72.4,102.5,72.4z"/>
		<path class="st3" d="M143.8,104.2c0,0.1,0,0.2,0,0.3C143.8,104.3,143.8,104.2,143.8,104.2z"/>
		<path class="st3" d="M143.9,105c0,0.1,0,0.2,0,0.3C143.9,105.2,143.9,105.1,143.9,105z"/>
		<path class="st3" d="M143.6,102.5c0,0.1,0,0.1,0,0.2C143.6,102.6,143.6,102.5,143.6,102.5z"/>
		<path class="st3" d="M144,107C144,107.1,144,107.1,144,107C144,107.1,144,107.1,144,107z"/>
		<path class="st3" d="M72,109C72,109,72,109,72,109C72,109,72,109,72,109z"/>
		<path class="st3" d="M143.7,103.3c0,0.1,0,0.2,0,0.2C143.7,103.5,143.7,103.4,143.7,103.3z"/>
		<path class="st3" d="M144,105.9c0,0.1,0,0.2,0,0.3C144,106.1,144,106,144,105.9z"/>
		<path class="st3" d="M112.7,143.7c-0.1,0-0.1,0-0.2,0C112.6,143.7,112.6,143.7,112.7,143.7z"/>
		<path class="st3" d="M111.8,143.8c-0.1,0-0.1,0-0.2,0C111.7,143.8,111.7,143.8,111.8,143.8z"/>
		<path class="st3" d="M110.9,143.9c-0.1,0-0.1,0-0.2,0C110.8,143.9,110.9,143.9,110.9,143.9z"/>
		<path class="st3" d="M113.5,143.6C113.5,143.6,113.5,143.6,113.5,143.6C113.5,143.6,113.5,143.6,113.5,143.6z"/>
		<path class="st3" d="M103.5,106.6c0.5-0.5,0.9-1.1,1.1-1.7c0.2-0.3,0.3-0.7,0.4-1c0.2-0.6,0.2-1.2,0.2-1.8c0-2.3-1.4-4-4.1-4h-6.8
			l-1.8,10.4h6.8C100.9,108.5,102.3,107.8,103.5,106.6z"/>
		<path class="st3" d="M72.1,110.1c0-0.1,0-0.2,0-0.3C72,109.9,72.1,110,72.1,110.1z"/>
		<path class="st3" d="M144,107.9c0,9.1-4.4,17.8-11.9,23.1c-4.7,3.4-10.3,5.3-16.2,5.3c-2.4,0-4.8-0.2-7.1-0.8
			c-3.9-0.9-7.6-2.7-10.7-5.1c3.3,1.1,6.8,1.6,10.3,1.6c6.5-0.1,12.7-2.1,17.9-5.9c0.9-0.6,1.7-1.3,2.5-2c0,0,0,0,0,0
			c-3,1.2-6,1.7-8.9,1.7c-4.6,0-8.3-1.4-11.1-4.1c-1.8-1.8-3-3.9-3.6-6.3c2.1-0.7,4-1.9,5.7-3.7c0.6-0.6,1.1-1.2,1.6-1.9
			c0,5.2,3.4,8.8,9.1,8.8c3,0,6-0.8,9.1-2.4l-1.3,7.3l0,0c4.5-4.2,7.8-9.7,9.2-15.7c0.6-2.6,0.9-5.2,0.9-7.9
			c-0.1-5.9-1.8-11.5-4.9-16.4c-6.6-7.2-16-11.6-26.5-11.6c0,0-0.1,0-0.1,0c9.1,0,17.8,4.4,23.1,11.9c1.7,2.4,3,5,3.9,7.7
			c0,0,0,0,0,0l-1.1,6.2l0,0.1l-0.2,1.2c-0.4-0.2-0.7-0.4-1.1-0.6c0,0,0,0,0,0c-0.6-0.3-1.2-0.6-1.8-0.8c-0.1,0-0.1,0-0.2-0.1
			c0,0-0.1,0-0.1,0c0,0-0.1,0-0.1,0c0,0,0,0,0,0c0,0,0,0,0,0c0,0,0,0-0.1,0c-1.5-0.5-3.2-0.8-4.9-0.8c-3.5,0-6.6,1.3-9.2,3.9
			c-0.4,0.4-0.7,0.7-1,1.1c0-0.3,0-0.6,0-0.8c0-2.7-0.8-4.9-2.2-6.7c3.6-2.8,8.2-4.5,12.8-4.6h0c0,0,0.1,0,0.1,0c0,0,0,0,0,0
			c-4.4-6.1-10.8-10.4-18.1-12.1c-2.6-0.6-5.2-0.9-7.9-0.9c-5.9,0.1-11.5,1.8-16.4,4.9C76.5,88.1,72,97.5,72,108c0,0,0,0.1,0,0.1
			C72,99,76.4,90.3,83.9,85c4.7-3.4,10.3-5.3,16.2-5.3c2.4,0,4.8,0.2,7.1,0.8c3.9,0.9,7.6,2.7,10.7,5.1c-3.3-1.1-6.8-1.6-10.3-1.6
			c-6.5,0.1-12.7,2.1-17.9,5.9c-6.1,4.4-10.5,10.9-12.2,18.2c-0.6,2.6-0.9,5.2-0.9,7.9c0.1,5.9,1.8,11.5,4.9,16.4
			c6.6,7.2,16,11.6,26.5,11.6c0,0,0.1,0,0.1,0c-9.1,0-17.8-4.4-23.1-11.9c-1.3-1.8-2.2-3.7-3-5.8l2.4-13.8L88,91.9h15.2
			c3.4,0,6.1,1.3,7.7,3.4c1.2,1.5,1.8,3.5,1.8,5.7c0,3.8-1.3,7-4,9.7c-1.5,1.5-3.1,2.5-4.9,3.2c-1.4,0.5-3,0.8-4.6,0.8h-7.8l-2,11
			c0.2,0.2,0.3,0.5,0.5,0.7c4.4,6.1,10.9,10.5,18.2,12.2c2.6,0.6,5.2,0.9,7.9,0.9c5.9-0.1,11.5-1.8,16.4-4.9
			C139.5,127.9,144,118.5,144,107.9C144,108,144,107.9,144,107.9z"/>
		<path class="st3" d="M72.2,111.9c0-0.1,0-0.2,0-0.3C72.2,111.7,72.2,111.8,72.2,111.9z"/>
		<path class="st3" d="M72.1,111c0-0.1,0-0.2,0-0.3C72.1,110.8,72.1,110.9,72.1,111z"/>
		<path class="st3" d="M72.3,112.7c0-0.1,0-0.2,0-0.2C72.3,112.5,72.3,112.6,72.3,112.7z"/>
		<path class="st3" d="M110,144c0,0-0.1,0-0.1,0C109.9,144,109.9,144,110,144z"/>
		<path class="st3" d="M72.4,113.5c0-0.1,0-0.1,0-0.2C72.4,113.4,72.4,113.5,72.4,113.5z"/>
	</g>
	<linearGradient id="SVGID_18_" gradientUnits="userSpaceOnUse" x1="118.4649" y1="98.8825" x2="94.4296" y2="140.5128">
		<stop  offset="0" style="stop-color:#AE1717"/>
		<stop  offset="0.5" style="stop-color:#DA3025"/>
		<stop  offset="0.6764" style="stop-color:#E8361C"/>
		<stop  offset="1" style="stop-color:#FF3F0F"/>
	</linearGradient>
	<path class="st31" d="M116,139.4c-2.7,0-5.3-0.3-7.9-0.9c-7.3-1.8-13.8-6.1-18.2-12.2c-0.2-0.2-0.3-0.4-0.5-0.7l2-11h7.8
		c1.6,0,3.2-0.3,4.6-0.8c1.8-0.7,3.5-1.7,4.9-3.2c2.6-2.7,4-5.9,4-9.7c0-2.2-0.6-4.2-1.8-5.7c-1.6-2.1-4.3-3.4-7.7-3.4H88l-3.7,20.7
		l-2.4,13.8c0.8,2,1.7,4,3,5.8c5.4,7.5,14,11.9,23.2,11.9c0.1,0,0.2,0,0.4,0c0.1,0,0.2,0,0.4,0c8.8-0.2,17.1-3.6,23.5-9.5
		C127.5,137.6,121.9,139.3,116,139.4z M94.3,98.1h6.8c2.7,0,4.1,1.7,4.1,4c0,0.6-0.1,1.2-0.2,1.8c-0.1,0.4-0.2,0.7-0.4,1
		c-0.3,0.6-0.7,1.2-1.1,1.7c-1.2,1.2-2.5,1.8-4.2,1.8h-6.8L94.3,98.1z"/>
	<linearGradient id="SVGID_19_" gradientUnits="userSpaceOnUse" x1="108.2313" y1="110.9817" x2="128.2528" y2="125.3118">
		<stop  offset="0" style="stop-color:#AE1717"/>
		<stop  offset="0.5" style="stop-color:#DA3025"/>
		<stop  offset="0.6764" style="stop-color:#E8361C"/>
		<stop  offset="1" style="stop-color:#FF3F0F"/>
	</linearGradient>
	<path class="st32" d="M121.5,118.7c-5.7,0-9.1-3.6-9.1-8.8c-0.5,0.6-1,1.3-1.6,1.9c-1.7,1.7-3.6,2.9-5.7,3.7
		c0.6,2.4,1.8,4.5,3.6,6.3c2.8,2.7,6.5,4.1,11.1,4.1c2.9,0,5.9-0.6,8.9-1.7c0.2-0.1,0.3-0.1,0.5-0.2l0.1-0.3l1.3-7.3
		C127.5,117.9,124.5,118.7,121.5,118.7z"/>
	<g>
		<linearGradient id="SVGID_20_" gradientUnits="userSpaceOnUse" x1="121.0904" y1="106.385" x2="100.5108" y2="70.74">
			<stop  offset="0" style="stop-color:#AE1717"/>
			<stop  offset="0.5" style="stop-color:#DA3025"/>
			<stop  offset="0.6764" style="stop-color:#E8361C"/>
			<stop  offset="1" style="stop-color:#FF3F0F"/>
		</linearGradient>
		<path class="st33" d="M135,91.6l-1.1,6.2l0,0.1l-0.2,1.2c-0.4-0.2-0.7-0.4-1.1-0.6c0,0,0,0,0,0c-0.6-0.3-1.2-0.6-1.8-0.8
			c-0.1,0-0.1,0-0.2-0.1c0,0-0.1,0-0.1,0c0,0-0.1,0-0.1,0c0,0,0,0,0,0c0,0,0,0,0,0c0,0,0,0-0.1,0c-1.5-0.5-3.2-0.8-4.9-0.8
			c-3.5,0-6.6,1.3-9.2,3.9c-0.4,0.4-0.7,0.7-1,1.1c0-0.3,0-0.6,0-0.8c0-2.7-0.8-4.9-2.2-6.7c3.6-2.8,8.2-4.5,12.8-4.6h0
			c0,0,0.1,0,0.1,0c0,0,0,0,0,0c-4.4-6.1-10.8-10.4-18.1-12.1c-2.6-0.6-5.2-0.9-7.9-0.9c-5.9,0.1-11.5,1.8-16.4,4.9
			c6.4-5.9,14.7-9.3,23.5-9.5c0.1,0,0.3,0,0.4,0c0.1,0,0.2,0,0.4,0c9.2,0,17.8,4.4,23.2,11.9C132.7,86.2,134.1,88.8,135,91.6
			C135,91.6,135,91.6,135,91.6z"/>
		<linearGradient id="SVGID_21_" gradientUnits="userSpaceOnUse" x1="98.0845" y1="110.0074" x2="144.0158" y2="110.0074">
			<stop  offset="0" style="stop-color:#00855F"/>
			<stop  offset="1" style="stop-color:#00F849"/>
		</linearGradient>
		<path class="st34" d="M144,107.5c0,0.1,0,0.2,0,0.4c0,9.2-4.4,17.9-11.9,23.2c-4.7,3.4-10.3,5.3-16.2,5.3c-2.4,0-4.8-0.2-7.1-0.8
			c-3.9-0.9-7.6-2.7-10.7-5.1c3.3,1.1,6.8,1.6,10.3,1.6c6.5-0.1,12.7-2.1,17.9-5.9c6.1-4.4,10.5-10.9,12.2-18.2
			c0.6-2.6,0.9-5.2,0.9-7.9c-0.1-5.9-1.8-11.5-4.9-16.4c5.9,6.4,9.3,14.7,9.5,23.5C144,107.2,144,107.3,144,107.5z"/>
		<linearGradient id="SVGID_22_" gradientUnits="userSpaceOnUse" x1="117.9314" y1="106.0085" x2="72.0001" y2="106.0085">
			<stop  offset="0" style="stop-color:#3100C2"/>
			<stop  offset="0.3998" style="stop-color:#313FDD"/>
			<stop  offset="0.8052" style="stop-color:#3179F5"/>
			<stop  offset="1" style="stop-color:#3190FF"/>
		</linearGradient>
		<path class="st35" d="M117.9,85.6c-3.3-1.1-6.8-1.6-10.3-1.6c-6.5,0.1-12.7,2.1-17.9,5.9c-6.1,4.4-10.5,10.9-12.2,18.2
			c-0.6,2.6-0.9,5.2-0.9,7.9c0.1,5.9,1.8,11.5,4.9,16.4c-5.9-6.4-9.3-14.7-9.5-23.5c0-0.1,0-0.3,0-0.4c0-0.1,0-0.2,0-0.4
			C72,99,76.4,90.3,83.9,85c4.7-3.4,10.3-5.3,16.2-5.3c2.4,0,4.8,0.2,7.1,0.8C111.1,81.4,114.8,83.1,117.9,85.6z"/>
	</g>
</g>
<g id="Layer_3" class="st0">
	<g id="SvgjsG1108" class="st36">
		<path class="st28" d="M123.1,121.1c0.5,0.9,1.2,1.6,2.1,2.1c1.4,0.8,3.2-0.2,3.2-1.8c0-1-0.2-2-0.7-2.9c-0.9-1.7-2.6-2.7-4.3-2.9
			c-0.2,0-0.4,0.1-0.4,0.2C122.1,117.6,122.1,119.5,123.1,121.1z"/>
		<linearGradient id="SVGID_23_" gradientUnits="userSpaceOnUse" x1="127.4799" y1="121.2621" x2="132.7524" y2="121.2621">
			<stop  offset="0" style="stop-color:#6AB891"/>
			<stop  offset="1" style="stop-color:#85CBA9"/>
		</linearGradient>
		<path class="st37" d="M132.8,119.3c0-0.1-0.1-0.3-0.2-0.3c-1.3-0.4-2.7-0.2-3.9,0.6c-0.2,0.1-0.3,0.2-0.4,0.4
			c0.1,0.5,0.2,1,0.2,1.4c0,0.7-0.4,1.3-0.9,1.7c0.3,0.4,0.8,0.6,1.4,0.6c0.7-0.1,1.5-0.3,2.1-0.8
			C132.2,122,132.8,120.7,132.8,119.3z"/>
		<path class="st25" d="M127.3,116.7L127.3,116.7c0.4,0.5,1,0.5,1.5,0.2l2.2-1.7c0.5-0.4,0.5-1,0.2-1.5l0,0c-0.4-0.5-1-0.5-1.5-0.2
			l-2.2,1.7C127.1,115.6,127,116.2,127.3,116.7z"/>
		<path class="st28" d="M128.7,114.4l-1.1,0.9c-0.5,0.4-0.5,1-0.2,1.5c0.4,0.5,1,0.5,1.5,0.2l1.1-0.9L128.7,114.4z"/>
		<path class="st27" d="M133.3,113.9L133.3,113.9c-0.4-0.5-1-0.5-1.5-0.2l-0.4,0.3c0.1,0.4,0,0.8-0.4,1.1l-1.9,1.4
			c0,0.1,0.1,0.2,0.2,0.4l0,0c0.4,0.5,1,0.5,1.5,0.2l2.2-1.7C133.5,115.1,133.6,114.4,133.3,113.9z"/>
		<linearGradient id="SVGID_24_" gradientUnits="userSpaceOnUse" x1="129.1801" y1="116.2455" x2="131.9514" y2="116.2455">
			<stop  offset="0" style="stop-color:#6AB891"/>
			<stop  offset="1" style="stop-color:#85CBA9"/>
		</linearGradient>
		<path class="st38" d="M132,116.3l-0.9-1.1c0,0,0,0,0,0l-1.9,1.4c0,0.1,0.1,0.2,0.2,0.4l0,0c0.4,0.5,1,0.5,1.5,0.2L132,116.3z"/>
		<path class="st39" d="M129.3,113L129.3,113c-0.5,0.4-1.1,0.3-1.5-0.2l-1.7-2.2c-0.4-0.5-0.3-1.1,0.2-1.5l0,0
			c0.5-0.4,1.1-0.3,1.5,0.2l1.7,2.2C129.8,112,129.7,112.7,129.3,113z"/>
		<path class="st40" d="M128.6,110.4l-0.9-1.1c-0.4-0.5-1-0.5-1.5-0.2c-0.5,0.4-0.5,1-0.2,1.5l0.9,1.1L128.6,110.4z"/>
		<path class="st27" d="M121.5,122.3l0.1,0l0,0.1c0,0.1,0.1,0.2,0.2,0.2c0.1,0,0.2-0.1,0.2-0.2l0,0l0-0.1l0.1,0
			c0.1,0,0.2-0.1,0.2-0.2c0-0.1-0.1-0.2-0.2-0.2l0,0l-0.1,0l0-0.1c0-0.1-0.1-0.2-0.2-0.2c-0.1,0-0.2,0.1-0.2,0.2l0,0l0,0.1l-0.1,0
			c-0.1,0-0.2,0.1-0.2,0.2C121.3,122.1,121.4,122.2,121.5,122.3C121.5,122.3,121.5,122.3,121.5,122.3z"/>
		<linearGradient id="SVGID_25_" gradientUnits="userSpaceOnUse" x1="132.633" y1="117.4695" x2="133.4421" y2="117.4695">
			<stop  offset="0" style="stop-color:#6AB891"/>
			<stop  offset="1" style="stop-color:#85CBA9"/>
		</linearGradient>
		<path class="st41" d="M133.4,117.5c-0.2-0.1-0.3-0.2-0.3-0.4c0,0,0,0,0,0c-0.1,0.2-0.2,0.3-0.4,0.3c0,0,0,0,0,0
			c0.2,0.1,0.3,0.2,0.3,0.4c0,0,0,0,0,0C133.1,117.7,133.2,117.5,133.4,117.5C133.4,117.5,133.4,117.5,133.4,117.5z"/>
		<circle class="st40" cx="123.6" cy="123.8" r="0.2"/>
		<circle class="st40" cx="128.7" cy="108.5" r="0.2"/>
		<path class="st39" d="M129.7,109.6c0.3,0,0.5-0.2,0.6-0.5c0,0,0,0,0,0c0,0.3,0.2,0.5,0.5,0.6c0,0,0,0,0,0c-0.3,0-0.5,0.2-0.6,0.5
			c0,0,0,0,0,0C130.2,110,130,109.7,129.7,109.6C129.7,109.6,129.7,109.6,129.7,109.6z"/>
		<path d="M125.9,123.7c-0.3,0-0.6-0.1-0.9-0.3c-0.9-0.5-1.6-1.3-2.1-2.2c-0.9-1.6-1-3.6-0.2-5.3c0.1-0.2,0.4-0.4,0.6-0.3
			c1.9,0.2,3.5,1.3,4.4,2.9c0.5,0.9,0.8,1.9,0.7,3c0,0.8-0.5,1.6-1.2,2C126.9,123.7,126.4,123.8,125.9,123.7z M123.4,115.9
			C123.4,115.9,123.3,115.9,123.4,115.9c-0.2,0-0.3,0-0.4,0.1c-0.8,1.6-0.7,3.5,0.2,5l0,0c0.5,0.9,1.2,1.6,2,2.1
			c0.6,0.4,1.3,0.4,2,0c0.6-0.3,1-1,1-1.7c0-1-0.2-1.9-0.7-2.8C126.7,117.1,125.1,116.1,123.4,115.9z"/>
		<path d="M127.2,123.4c0,0-0.1,0-0.1-0.1l-2.9-5.3c0-0.1,0-0.2,0.1-0.2c0.1,0,0.2,0,0.2,0.1l2.9,5.3
			C127.4,123.2,127.4,123.3,127.2,123.4C127.3,123.4,127.2,123.4,127.2,123.4z"/>
		<path d="M126.4,122C126.4,122,126.4,122,126.4,122l-1.7-0.5c-0.1,0-0.1-0.1-0.1-0.2c0-0.1,0.1-0.1,0.2-0.1l1.5,0.4l0.4-1.5
			c0-0.1,0.1-0.1,0.2-0.1c0.1,0,0.1,0.1,0.1,0.2l-0.5,1.7C126.6,122,126.5,122,126.4,122z M125.6,120.5
			C125.6,120.5,125.6,120.5,125.6,120.5l-1.2-0.4c-0.1,0-0.1-0.1-0.1-0.2c0-0.1,0.1-0.1,0.2-0.1l1.1,0.3l0.3-1.1
			c0-0.1,0.1-0.1,0.2-0.1c0.1,0,0.1,0.1,0.1,0.2l-0.3,1.2C125.7,120.5,125.7,120.5,125.6,120.5z M124.8,119.1
			C124.8,119.1,124.8,119.1,124.8,119.1l-0.8-0.2c-0.1,0-0.1-0.1-0.1-0.2c0-0.1,0.1-0.1,0.2-0.1l0.6,0.2l0.2-0.6
			c0-0.1,0.1-0.1,0.2-0.1c0.1,0,0.1,0.1,0.1,0.2L125,119C125,119.1,124.9,119.1,124.8,119.1z M128,122.7c0,0-0.1,0-0.1-0.1
			c-0.1-0.1,0-0.2,0-0.2l3.3-2.4c0.1-0.1,0.2,0,0.2,0c0.1,0.1,0,0.2,0,0.2l-3.3,2.4C128.1,122.7,128,122.8,128,122.7z"/>
		<path d="M130.4,122.1C130.4,122.1,130.4,122.1,130.4,122.1l-1.3-0.2c-0.1,0-0.1-0.1-0.1-0.2l0.2-1.3c0-0.1,0.1-0.1,0.2-0.1
			c0,0,0,0,0,0c0.1,0,0.1,0.1,0.1,0.2l-0.2,1.2l1.2,0.2c0.1,0,0.1,0.1,0.1,0.2C130.6,122.1,130.5,122.1,130.4,122.1z M131.2,121.2
			C131.2,121.2,131.2,121.2,131.2,121.2l-0.9-0.1c0,0-0.1,0-0.1-0.1c0,0,0-0.1,0-0.1l0.1-0.9c0-0.1,0.1-0.1,0.2-0.1c0,0,0,0,0,0
			c0.1,0,0.1,0.1,0.1,0.2l-0.1,0.7l0.7,0.1c0.1,0,0.1,0.1,0.1,0.2C131.3,121.1,131.3,121.2,131.2,121.2z"/>
		<path d="M128.5,123.9c-0.4-0.1-0.8-0.2-1.1-0.6c-0.1-0.1-0.1-0.2,0-0.2c0.1-0.1,0.2-0.1,0.2,0c0.3,0.3,0.8,0.5,1.2,0.5
			c0.7-0.1,1.4-0.4,2-0.8c1.1-0.8,1.7-2.1,1.7-3.4c0-0.1,0-0.1-0.1-0.2c-1.3-0.4-2.7-0.2-3.8,0.6c-0.1,0.1-0.3,0.2-0.4,0.3
			c-0.1,0.1-0.2,0.1-0.2,0s-0.1-0.2,0-0.2c0.1-0.1,0.3-0.2,0.4-0.4c1.2-0.9,2.7-1.1,4-0.7c0.2,0.1,0.3,0.3,0.3,0.5
			c0,1.4-0.7,2.8-1.8,3.7c-0.6,0.5-1.4,0.8-2.2,0.9C128.8,123.9,128.6,123.9,128.5,123.9z M128,117.2c-0.3,0-0.6-0.2-0.8-0.5
			c-0.4-0.5-0.3-1.3,0.2-1.7l2.2-1.7c0.5-0.4,1.3-0.3,1.7,0.2s0.3,1.3-0.2,1.7l-2.2,1.7C128.6,117.2,128.3,117.3,128,117.2z
			 M130.5,113.4c-0.2,0-0.5,0-0.7,0.2l-2.2,1.7c-0.4,0.3-0.5,0.9-0.2,1.2c0.3,0.4,0.9,0.5,1.2,0.2l2.2-1.7c0.4-0.3,0.5-0.9,0.2-1.2
			C131,113.6,130.8,113.5,130.5,113.4z"/>
		<path d="M129.8,116.1c0,0-0.1,0-0.1-0.1l-1.1-1.4c-0.1-0.1,0-0.2,0-0.2c0.1-0.1,0.2,0,0.2,0l1.1,1.4c0.1,0.1,0,0.2,0,0.2
			C129.9,116.1,129.9,116.1,129.8,116.1z"/>
		<path d="M130,117.5c-0.3,0-0.6-0.2-0.8-0.5c-0.1-0.1-0.2-0.3-0.2-0.4c0-0.1,0-0.1,0.1-0.2l1.9-1.4c0.3-0.2,0.4-0.6,0.3-0.9
			c0-0.1,0-0.1,0.1-0.2l0.4-0.3c0.3-0.2,0.6-0.3,0.9-0.2c0.3,0,0.6,0.2,0.8,0.5l0,0c0.4,0.5,0.3,1.3-0.2,1.7l-2.2,1.7
			C130.7,117.5,130.4,117.5,130,117.5z M129.4,116.7c0,0.1,0.1,0.1,0.1,0.2c0.3,0.4,0.9,0.5,1.2,0.2l2.2-1.7
			c0.4-0.3,0.5-0.9,0.2-1.2c-0.3-0.4-0.9-0.5-1.2-0.2l-0.3,0.2c0.1,0.4-0.1,0.9-0.4,1.2L129.4,116.7z"/>
		<path d="M131.8,116.3c0,0-0.1,0-0.1-0.1l-0.8-1c-0.1-0.1,0-0.2,0-0.2c0.1-0.1,0.2,0,0.2,0l0.8,1c0.1,0.1,0,0.2,0,0.2
			C131.9,116.3,131.9,116.3,131.8,116.3z M128.5,113.4c-0.3,0-0.6-0.2-0.8-0.5l-1.7-2.2c-0.2-0.3-0.3-0.6-0.2-0.9
			c0-0.3,0.2-0.6,0.5-0.8c0.5-0.4,1.3-0.3,1.7,0.2l1.7,2.2c0.4,0.5,0.3,1.3-0.2,1.7l0,0l0,0C129.1,113.3,128.8,113.4,128.5,113.4z
			 M127,109.1c-0.2,0-0.5,0-0.7,0.2c-0.2,0.1-0.3,0.4-0.3,0.6c0,0.2,0,0.5,0.2,0.7l1.7,2.2c0.1,0.2,0.4,0.3,0.6,0.3
			c0.2,0,0.5,0,0.7-0.2l0,0c0.4-0.3,0.5-0.9,0.2-1.2l-1.7-2.2C127.4,109.2,127.2,109.1,127,109.1z"/>
		<path d="M127,111.8c0,0-0.1,0-0.1-0.1c-0.1-0.1,0-0.2,0-0.2l1.4-1.1c0.1-0.1,0.2,0,0.2,0c0.1,0.1,0,0.2,0,0.2l-1.4,1.1
			C127.1,111.8,127,111.8,127,111.8z"/>
	</g>
</g>
</svg>
