<svg xmlns="http://www.w3.org/2000/svg" shape-rendering="geometricPrecision" text-rendering="geometricPrecision" image-rendering="optimizeQuality" fill-rule="evenodd" clip-rule="evenodd" viewBox="0 0 512 478.126"><path d="M272.472 109.892l-5.627-25.735c24.103 4.483 62.734 53.511 75.219 75.805 6.372 11.377 11.951 23.911 16.521 37.924 9.101 33.913.334 65.641-36.455 73.03-23.051 4.631-66.039 4.957-90.282 3.704-26.062-1.348-66.392-1.308-76.928-28.065-17.003-43.191 14.151-94.645 42.555-126.138 3.739-4.145 7.603-8.007 11.602-11.571 7.714-6.786 15.228-13.857 24.024-19.257 3.644-1.822 6.078-3.465 10.105-4.885l.024-.008.621-.215-12.846 23.923 14.734-19.536 3.925-5.201h9.83l5.768 11.654 7.21 14.571zM512 259.928v85.332c0 4.655-1.918 8.897-5.001 11.983l.014.014c-3.078 3.078-7.329 4.989-12 4.989h-85.36c-4.671 0-8.921-1.916-11.996-4.992l-.442-.485c-2.816-3.041-4.55-7.097-4.55-11.509v-85.332c0-4.67 1.912-8.922 4.989-11.999 3.073-3.074 7.322-4.987 11.999-4.987h85.36c4.66 0 8.901 1.912 11.976 4.984l.027.027c3.072 3.075 4.984 7.316 4.984 11.975zM324.402 385.483v77.149c0 4.262-1.748 8.14-4.55 10.942-2.807 2.807-6.687 4.552-10.944 4.552H203.096c-4.258 0-8.135-1.75-10.94-4.555l-.337-.371c-2.609-2.78-4.218-6.508-4.218-10.568v-77.149c0-4.258 1.745-8.138 4.552-10.944 2.805-2.805 6.678-4.55 10.943-4.55h105.812c4.25 0 8.12 1.743 10.926 4.547l.021.022c2.804 2.804 4.547 6.675 4.547 10.925zM68.519 219.466a6.81 6.81 0 01-6.809 6.81 6.81 6.81 0 01-6.809-6.81v-51.301c0-6.346 2.596-12.12 6.777-16.3 4.177-4.178 9.948-6.776 16.298-6.776h79.18a212.187 212.187 0 00-7.707 13.619H77.976c-2.588 0-4.953 1.068-6.67 2.785-1.719 1.719-2.787 4.083-2.787 6.672v51.301zm285.02-74.377h80.483c6.32 0 12.084 2.595 16.276 6.774l.041.042c4.17 4.19 6.759 9.945 6.759 16.26v51.239a6.81 6.81 0 01-13.619 0v-51.239a9.412 9.412 0 00-2.757-6.674l-.026-.026a9.412 9.412 0 00-6.674-2.757h-72.811a213.532 213.532 0 00-3.898-7.295 146.643 146.643 0 00-3.774-6.324zM119.337 259.928v77.15c0 4.675-1.915 8.925-4.988 11.997-3.076 3.078-7.331 4.989-11.999 4.989H16.987c-4.669 0-8.919-1.916-11.995-4.992C1.917 345.997 0 341.747 0 337.078v-77.15c0-4.667 1.912-8.922 4.989-11.999 3.072-3.072 7.322-4.987 11.998-4.987h85.363c4.66 0 8.901 1.912 11.976 4.984l.027.027c3.072 3.075 4.984 7.316 4.984 11.975zm-13.619 77.15v-77.15a3.39 3.39 0 00-.981-2.386 3.39 3.39 0 00-2.387-.981H16.987c-.915 0-1.756.383-2.37.997a3.358 3.358 0 00-.998 2.37v77.15c0 .909.386 1.751 1.002 2.366a3.36 3.36 0 002.366 1.002h85.363a3.36 3.36 0 002.371-.999 3.351 3.351 0 00.997-2.369zm157.092 8.353c0 3.76-3.05 6.81-6.81 6.81s-6.81-3.05-6.81-6.81v-52.798c4.365.065 8.941.086 13.62.057v52.741zm235.571-.171v-85.332a3.39 3.39 0 00-.981-2.386 3.39 3.39 0 00-2.387-.981h-85.36c-.917 0-1.757.383-2.371.997a3.358 3.358 0 00-.998 2.37v85.332c0 .825.298 1.582.786 2.16l.215.206a3.36 3.36 0 002.368 1.001h85.36c.914 0 1.756-.383 2.371-.998h.026a3.341 3.341 0 00.971-2.369zM282.449 183.675c-2.246 4.098-4.945 7.094-8.116 9.042-3.173 1.924-6.794 3.222-10.84 3.897v29.796c0 1.499-.575 2.748-1.724 3.697-1.148.949-2.322 1.423-3.547 1.423h-4.82c-1.748 0-3.621-.674-5.57-2.023-1.947-1.323-3.746-3.146-5.369-5.418-1.624-2.249-2.998-4.796-4.072-7.644a24.26 24.26 0 01-1.599-8.692c0-3.073.725-5.494 2.149-7.218 1.448-1.723 3.296-2.598 5.545-2.598.274 0 .748.076 1.423.225.65.151 1.299.5 1.974 1.1.649.573 1.249 1.497 1.748 2.746.524 1.224.774 2.947.774 5.145 0 1.9-.3 3.323-.874 4.297-.6.949-1.225 1.649-1.923 2.148-.675.499-1.3.823-1.899.998-.574.15-.874.45-.874.826 0 .599.125 1.322.374 2.197.251.873.651 1.748 1.2 2.647.575.874 1.224 1.623 1.973 2.223.774.6 1.648.924 2.672.924v-26.425a149.827 149.827 0 01-6.469-.7c-2.073-.273-4.295-.848-6.693-1.723-2.648 0-4.696-.774-6.144-2.296-1.474-1.549-2.197-3.323-2.197-5.371 0-2.148.723-3.972 2.197-5.47 1.448-1.474 3.297-2.223 5.47-2.223 1.922 0 3.596.525 5.019 1.574 1.449 1.048 2.323 2.422 2.673 4.145.675.425 1.523.799 2.497 1.125a72.67 72.67 0 013.647 1.348v-3.796c0-2.598-.499-4.37-1.523-5.345-1.024-.974-2.448-1.473-4.246-1.473-.749 0-1.374.049-1.949.125a11.13 11.13 0 01-1.497.099c-1.025 0-1.875-.674-2.524-2.048s-1.598-3.222-2.822-5.57l18.433-19.606h2.073l11.614 7.918c.3.274.875.424 1.772.424.725 0 1.374-.2 1.974-.65l2.124 3.072-8.567 8.793c-.4 0-.949-.325-1.674-.974a52.717 52.717 0 00-2.647-2.074 21.308 21.308 0 00-3.623-2.123 10.716 10.716 0 00-4.57-.999c-.575 0-1.175.15-1.748.425-.6.249-1.15.649-1.649 1.148a15.632 15.632 0 00-1.374 1.549c-.374.501-.823 1.15-1.298 1.949 1.323-.251 2.522-.376 3.646-.376 1.899 0 3.622.275 5.171.85 1.522.549 2.847 1.274 3.945 2.198 1.1.899 1.95 1.922 2.524 3.097a8.086 8.086 0 01.874 3.722v10.764c2.548-.249 5.046-.898 7.543-1.972 2.498-1.074 4.971-3.048 7.468-5.921l3.945 3.072zM235.522 47.371c-4.264-12.576-8.033-25.218-11.302-38.084 3.219-3.522 8.341-5.525 12.836-6.772 18.723-5.145 48.797-2.119 59.128 6.566l-12.391 29.464c6.664-8.756 8.903-12.35 12.88-17.228a38.158 38.158 0 014.724 3.665c3.526 3.189 6.672 6.716 7.31 11.631.413 3.188-.499 6.426-3.335 9.738L276.94 79.466c-3.66-.601-7.236-1.479-10.706-2.712 1.654-3.937 3.482-7.809 5.17-11.764l-10.352 11.179c-10.783-2.274-19.454-.917-27.534 3.356L204.684 44.92c-1.713-2.063-2.493-4.126-2.487-6.191.148-5.604 5.108-9.994 9.355-12.989 3.078-2.092 6.232-3.896 9.674-5.327l14.296 26.958z"/></svg>